<svg id="Gruppe_22019" data-name="Gruppe 22019" xmlns="http://www.w3.org/2000/svg" width="28" height="28.004" viewBox="0 0 28 28.004">
  <path id="Pfad_3577" data-name="Pfad 3577" d="M2227.108,22077.109h-12.1v-3.27a10.608,10.608,0,0,0,8.215-8.838h3.887v12.105h0Z" transform="translate(-2215 -22065.002)" fill="#023e84"/>
  <path id="Pfad_3580" data-name="Pfad 3580" d="M2197.268,22056.113l-3.27-.006V22044h12.11v3.889a10.6,10.6,0,0,0-8.839,8.217v.006Z" transform="translate(-2178.108 -22028.109)" fill="#fa7d19"/>
  <path id="Pfad_3579" data-name="Pfad 3579" d="M2206.108,22072H2194v-12.109h3.136a10.6,10.6,0,0,0,8.974,8.975V22072Zm15.889-15.895h-4.026a10.607,10.607,0,0,0-8.076-8.08V22044H2222v12.105Z" transform="translate(-2193.998 -22044.002)" fill="#023e84"/>
</svg>
